<svg xmlns="http://www.w3.org/2000/svg" viewBox="0 0 300 300"><path d="M84.849 223.984c-3.007 3.065-6.215 5.926-9.509 8.679-3.251 2.716-6.38 5.651-9.82 8.13-.8.579-1.639-.664-1.011-1.321 2.956-3.1 6.347-5.8 9.5-8.686a123.5 123.5 0 019.824-8.127c.794-.588 1.658.671 1.016 1.325zm-27.717-43.161c-6.052 2.2-12.209 4.185-18.44 5.821-6.275 1.648-12.746 2.439-18.859 4.072a.812.812 0 00.254 1.581c6.453.178 13.174-1.476 19.382-3.085a106.063 106.063 0 0018.449-6.647c.982-.465.235-2.113-.786-1.742zm5.5-40.811a132.6 132.6 0 00-13.221-6.541c-4.652-2.1-9.138-3.712-13.8-5.632-.792-.326-1.426.993-.648 1.379 4.46 2.217 8.587 4.515 13.174 6.613a133.87 133.87 0 0013.771 5.714.858.858 0 00.724-1.533zm31.574 12.958c.3-1.184-1.4-1.685-1.963-.688-2.192 3.861-2.93 8.555-3.106 12.934-.172 4.242.087 9.213 2.272 12.962.455.781 1.855.323 1.654-.536a42.687 42.687 0 01-1.216-12.363c.153-4.249 1.314-8.224 2.359-12.309zm6.572-16.015c-2.175 1.453-5.4 6.281-5.887 9.115a1.089 1.089 0 002.032.762 41.21 41.21 0 014.918-8.289c.959-1.159-.241-2.134-1.063-1.588zm-1.592 70.364a52.255 52.255 0 01-18.639-41.16 53.54 53.54 0 0120.967-40.868.923.923 0 00-1.072-1.5A53.966 53.966 0 0077.9 168.219c.256 19.843 10.13 34.492 25.611 45.616 8.5 6.111 18.2 12.559 20.37 23.567.191.972 1.674.905 1.574-.13-1.389-14.402-16.422-21.698-26.269-29.953zm121.707-56.871c-.436-.878-1.971-.209-1.594.711a42.8 42.8 0 01-.661 34.214c-6.107 12.937-17.476 17.727-26.172 27.816-4.38 5.082-8 11.5-7.364 18.431a.827.827 0 001.652-.026c.422-8.265 4.9-14.415 10.451-19.806 8.758-8.513 18.179-13.734 23.625-25.438 5.239-11.259 5.624-24.683.063-35.902zm8.632 75.25c-4-2.353-9.214-5.647-13.42-7.334-.944-.379-1.339.943-.684 1.483 3.488 2.877 8.905 5.881 12.883 8.268 4.382 2.629 8.748 5.284 13.324 7.568a1.053 1.053 0 001.122-1.781c-4.258-2.973-8.75-5.574-13.225-8.202zm47.705-53.421a142.524 142.524 0 00-15.78-.686c-5.332-.086-10.661-.133-15.992.012-.923.025-1 1.579-.065 1.646 5.251.375 10.512.566 15.775.714a144.412 144.412 0 0016 .022.866.866 0 00.062-1.708zm-27.788-42.8a84.924 84.924 0 0012.949-4.774 66.074 66.074 0 0012.016-6.822c.944-.723-.136-2.114-1.137-1.651-4.1 1.895-7.979 4.24-12.06 6.177-3.909 1.855-8.322 4.012-12.285 5.64a.77.77 0 00.517 1.426zm-60.065-42.1c-11.871-8.943-21.688-12.526-36.28-15.656-.842-.181-.592-1.49.231-1.461a53.66 53.66 0 0116.009 3.359c-3.625-8.153-10.563-14.078-16.451-15.52-6.621 2.72-16.156 10.645-19.04 14.117 3.682 10.8-7.334 19.752-20.357 14.542a73.755 73.755 0 00-21.056 13.125c5.536 2.5 11.31 12.264 13.091 20.512 7.856-2.93 16.973-6.078 25.547-5.209s35.056 14.109 46.777 16.714c-5.734-9.088-1.505-30.654 11.529-44.531z" fill-rule="evenodd" fill="#0cebeb"/><path d="M121.16 240.943c9.116 13.174 4.3 32.869 14.752 45.579 11.99 14.582 36.69 8.682 43.736-5.065 7.035-13.726 2.36-23.3 8.943-45.723-20.764 12.295-53.613 9.98-67.431 5.209zm54.391 32.89c-3.786 4.827-9.919 8.082-15.635 9.977a34.981 34.981 0 01-18.391 1.4.782.782 0 01.207-1.532 44.434 44.434 0 0017.524-2.414 45.391 45.391 0 0015.289-8.735c.794-.648 1.528.639 1.006 1.304zm2.429-12.654c-4.028 5.515-10.017 8.818-16.515 10.638-4.572 1.28-18.28 3.279-23.136 1.919-.78-.219-.7-1.482.03-1.476a100.171 100.171 0 0021.885-2.855A36.461 36.461 0 00176.6 260.1c.691-.708 1.974.267 1.38 1.079zm.033-13.452c.718-.448 1.767.458 1.088 1.183-4.5 4.806-13.815 8.8-20.151 10.47a52.7 52.7 0 01-22.738 1.176c-1.018-.178-.7-1.627.289-1.547a62.829 62.829 0 0021.843-1.945c8.416-2.364 12.907-5.118 19.669-9.337zm-2.82-95.419c-5.738-2.427-8.292-.28-9.822 5.249a142.945 142.945 0 00-5.015 31.952 70.8 70.8 0 01-18.791.783c-1.259-5.642-5.52-23.735-8.7-28.249-2.082-2.96-5.393-3.346-8.226-1.217-3.05 2.292-8.1 11.464-9.858 15.277-2.5 5.412-1.064 8.259 4.151 10.617a69.9 69.9 0 0020.584 5.7c1.508 6.888 2.716 13.725 3.593 20.729.939 7.487 1.52 15.3 2.11 22.846a.757.757 0 001.512-.038 153.2 153.2 0 00-1.292-23.359 240.696 240.696 0 00-3.361-19.925 73.638 73.638 0 0018.19-.719 142.567 142.567 0 004.478 39.8c.36 1.367 2.439.751 2.1-.617a147.941 147.941 0 01-4.246-39.589c7.7-1.535 21.435-6.157 26.606-12.566 4.667-5.785 2.179-12.713-2.214-17.9a32.232 32.232 0 00-11.799-8.774zm-53.172 33.268c-5.95-2.427-7.877-3.275-4.519-9.766 1.789-3.457 5.212-9.874 7.867-12.5 1.47-1.451 3.464-2.2 5.046-.493 2.8 3.032 7.532 22.633 8.575 27.17a67.839 67.839 0 01-16.969-4.411zm65.43-8.2c-4.316 5.812-17.623 10.175-24.752 11.683.417-8.867 2.245-23.819 5.412-32.514 1-2.734 2.452-3.25 5.2-2.351 5.775 1.894 12.586 7.726 15.045 13.189a9.541 9.541 0 01-.905 9.993zM126.065 46.212c-2.906 1.079-3.31 4.378-2.631 7.139a3.355 3.355 0 00-2.764 1c-1.353-2.751-4.484-5.138-7.508-3.421-2.547 1.446-2.663 5.287-1.954 7.78-1.2.48-2.673.736-3.945 1.232a.722.722 0 00.42 1.363c1.261-.232 2.81-.7 4.1-1.048 1.346 2.934 4.088 5.723 7.556 3.958 3.452-1.756 3.09-5.178 1.992-8.282a2.442 2.442 0 012.633-.951c1.04 2.643 3.54 6.194 6.816 4.609s2.674-5.9 1.751-8.682-3.249-5.89-6.466-4.697zm-7.343 16.526c-2.836 1.5-4.958-1.479-5.765-3.786-.669-1.916-.992-5.327.941-6.595 2.53-1.66 4.966 1.577 5.756 3.643.881 2.306 1.697 5.35-.932 6.738zm11.42-4.592c-2.721 1.143-4.217-2.083-5.018-4.1-.832-2.093-1.072-5.517 1.473-6.372 2.522-.848 4.048 2.288 4.641 4.2.616 1.992 1.027 5.38-1.096 6.272zm-13.232.907c.37.814.323 1.411-.148 1.8-.631.529-1.262.1-1.66-.582-.277-.475-.575-1.577.16-2.034.626-.385 1.4.271 1.648.816zm12.1-4.18a1.624 1.624 0 01-.4 1.635c-.641.422-1.342-.306-1.533-.921-.234-.75-.192-1.566.3-1.892.777-.508 1.465.546 1.634 1.178zm-3.192 7.627c.41-.385.552-.667.189-1.136a11.8 11.8 0 00-2.344-1.989c-.669-.47.057-1.575.76-1.2a10.237 10.237 0 012.17 1.6c1.738 1.648 1.51 3.153-.414 4.509a4.875 4.875 0 01-2.668 1.022.782.782 0 01-.306-1.389c.615-.493 1.74-.597 2.613-1.417zm-5.532 6.251a6.62 6.62 0 003.872-.808c.925-.513 1.393.655.729 1.17a8.162 8.162 0 01-4.69 1.18 7.684 7.684 0 01-4.515-1.509c-.619-.517-.027-1.675.739-1.269a7.883 7.883 0 003.865 1.234zm-3.338 6.265c4.219.439 9.037.924 12.6-1.871 4.356-3.411 2.687-7.847 1.127-11.415-.424-.97.918-1.355 1.294-.592 2.207 4.471 3.124 9.379-1.154 12.947-3.956 3.3-9.262 3.013-14.06 2.328-.79-.113-.596-1.481.193-1.399zm39.923-19.152c3.916-2.808 8.02-5.417 10.337-9.808 2.532-4.8 2.723-10.383 2.874-15.692a6.867 6.867 0 01-7.5-6.034.73.73 0 011.418-.319 5.381 5.381 0 005.591 4.674c1.63-.094 2.221.059 2.183 1.4-.161 5.672-.394 11.54-3.048 16.69-2.357 4.576-6.711 7.713-11.012 10.323-.723.441-1.53-.744-.843-1.236zm14.55-48.219c-.579-.6.3-1.6.967-1.1a13.536 13.536 0 014.11 5.49c.776 1.817 1.507 4.889 1.081 6.832a.866.866 0 01-1.66-.114c-.263-2.44-.033-3.588-1.023-6.047a15.709 15.709 0 00-3.475-5.063zM179.6 18.87a19.6 19.6 0 001.541-6.432 19.143 19.143 0 00-.943-6.553c-.233-.824.967-1.237 1.389-.506 1.011 1.748 1.351 5.1 1.28 7.123a15.53 15.53 0 01-1.745 7.054.845.845 0 01-1.522-.686zm2.464 3.028a15.516 15.516 0 003.533-3.961 19.356 19.356 0 002.074-5.01.735.735 0 011.447.257 14.552 14.552 0 01-2.067 5.6 17.314 17.314 0 01-3.856 4.46c.306 4.633.475 9.28.683 13.918.706 15.72-.236 21.553-13.784 32.057-.9.7-1.9-.757-1.007-1.451 13.547-10.527 13.634-16.056 13.009-31.484-.177-4.391-.406-8.783-.492-13.176a1.674 1.674 0 01.464-1.208zM101.5 73.59c-7.674 9.334-12.094 18.517-11.526 30.859a.754.754 0 01-1.5.183c-1.6-11.634 4.184-23.546 11.662-32.1.735-.832 2.076.196 1.364 1.058zm.758 46.432c-4.233 2.341-12.654 4.829-17.487 5.542-25.847 3.817-18.19-24.352-10.142-37.3A137.466 137.466 0 0189.126 68.97a30.245 30.245 0 01-.545-19.438c.332-1.036 1.976-1.354 1.569.536-1.625 7.543-1.371 10.9.412 17.92a2.347 2.347 0 01-.452 2.537 90.173 90.173 0 00-16.4 23.091c-6.2 12.991-10.036 33.6 11.563 30.055 6.056-.993 10.63-3.2 16.285-4.922.742-.225 1.472.851.703 1.273zm136.46 23.955c1.516 3.336 6.815 13.717 6.828 16.734.017 4.054-3.877 6.389-7.113 3.245-3.93-3.816-5.632-8.056-10.667-12.166-3.119-2.546-7.235-4.427-9.442-7.811a8.8 8.8 0 01-.916-8.376c.37-.913 1.9-.459 1.661.5a8.448 8.448 0 001.125 7.027c1.756 2.423 6.2 4.721 8.789 6.844 5.214 4.268 6.61 7.5 10.586 11.977 1.96 2.207 3.867 1.292 3.875-1.266.006-2.293-5.211-12.161-6.807-15.559-1.36-2.9-3.392-6.469-4.1-9.449-.24-1 1.209-2.233 1.782-.687 1.243 3.363 3.056 6.027 4.402 8.987zm41.99-83.558c-.461 5.153-5.805 25.6-7.031 29.478-2.272 7.191-9.171 6.467-14.735 3.833-.982-.465-.341-2.014.675-1.754 4.179 1.067 10.07 2.829 11.757-2.764 1.706-5.658 7.075-23.8 7.208-28.837.041-1.538-.931-2.1-2.114-1.179-4 3.1-9.491 12.829-12.207 17.341-.429.714-1.742.3-1.432-.55 1.547-4.234 8.908-16.406 12.849-18.774a3.261 3.261 0 015.033 3.206zM214.857 133.2a138.514 138.514 0 00.941-15.9c4.405-10.107 7.93-21.846 10.91-32.43a78.125 78.125 0 0113.223 5.458c-.034 8.537-1.906 38.306-3.476 40.923-5.309 2.819-18.125 2.276-21.598 1.949zm45.149-59.259c-.108 6.621-4.883 18.367-6.4 21.665-4.377-3.287-18.776-10.378-27.3-13.132a1.091 1.091 0 00-1.371.7c-2.278 8.3-4.659 16.6-7.647 24.677-5.177 13.99-13.064 26.775-35.964 22.1-12.9-25.071 32.61-73.436 39.4-74.852 8.459-1.766 34.076 14.501 39.282 18.844zm-144.187 10.2c-.859-2.962-6.6-11.022-8.575-13.136a3.258 3.258 0 001.385-2.8c-.077-.814-1.343-1.061-1.506-.16a2.534 2.534 0 01-4 1.869c-2.016-1.274-3.439-4.855-2.4-7.151a2.048 2.048 0 013.016-.727.819.819 0 001-.1 16.613 16.613 0 003.236-12.986 40.041 40.041 0 0015.345-4.212c5.747-2.907 10.03-6.155 8.351-14.357-1-4.9-5.015-10.143-11.371-8.653-8.017 1.879-22.385 15.07-23.064 23.025-2.717.609-4.975 1.916-5.471 4.844-.89 5.258 3.176 11.412 7.088 14.516-.12 3.838 2.424 8.718 7.025 7.63a108.054 108.054 0 018.676 13.162c.446.807 1.481-.017 1.265-.764zm-6.028-52.012a23.653 23.653 0 018.936-6.472c2.93-1.239 7.841-1.393 8.221 2.684a.878.878 0 01-1.632.432c-1.369-3.058-4.8-1.979-7.165-.825a31.676 31.676 0 00-7.353 5.209.72.72 0 01-1.007-1.028zm53.99-13.007a5.469 5.469 0 018.621-2.508 5.318 5.318 0 011.588 6.314.83.83 0 01-1.592-.407c.524-2.18-.028-4.308-2.3-5.135a3.97 3.97 0 00-4.907 2.3.759.759 0 01-1.41-.564z" fill-rule="evenodd"/></svg>